<svg xmlns="http://www.w3.org/2000/svg" width="32" height="32" viewBox="0 0 32 32">
    <g fill="none" fill-rule="evenodd" stroke="#5B82B0" stroke-linecap="round" stroke-linejoin="round" stroke-width="1.5">
        <path d="M21.197 24.434c0 3.262-2.675 5.906-5.972 5.906-3.298 0-5.972-2.644-5.972-5.906 0-3.26 5.972-12.179 5.972-12.179s5.972 8.918 5.972 12.179zM8.63 12.7c0 1.7-1.394 3.078-3.112 3.078-1.72 0-3.113-1.378-3.113-3.079 0-1.7 3.113-6.348 3.113-6.348S8.631 11 8.631 12.7zM13.404 4.665c0 .874-.716 1.582-1.6 1.582-.884 0-1.601-.708-1.601-1.582 0-.875 1.6-3.264 1.6-3.264s1.601 2.39 1.601 3.264zM29.547 10.376c0 2.403-1.969 4.35-4.398 4.35-2.429 0-4.398-1.947-4.398-4.35 0-2.402 4.398-8.97 4.398-8.97s4.398 6.568 4.398 8.97z"/>
    </g>
</svg>
