<svg xmlns="http://www.w3.org/2000/svg" width="32" height="32" viewBox="0 0 32 32">
    <g fill="none" fill-rule="evenodd" stroke="#F9A825" stroke-linecap="round" stroke-linejoin="round" stroke-width="1.5">
        <path d="M10.955 15.94a6.194 6.194 0 0 1 4.416-4.873M24.456 15.805a8.609 8.609 0 0 1-8.611 8.61 8.61 8.61 0 0 1 0-17.22 8.61 8.61 0 0 1 8.61 8.61zM15.823 30.2l.001-3.297M25.977 25.956l-2.33-2.331M30.156 15.776H26.86M25.913 5.622l-2.33 2.33M15.733 1.443v3.296M5.58 5.686l2.33 2.33M1.4 15.866h3.296M5.643 26.02l2.33-2.33"/>
    </g>
</svg>
