<svg xmlns="http://www.w3.org/2000/svg" width="24" height="24" viewBox="0 0 24 24">
    <g fill="none" fill-rule="evenodd">
        <path d="M0 0H24V24H0z"/>
        <path fill="#24A09A" fill-rule="nonzero" d="M22.113 9.318c-1.012-1.012-2.403-1.62-3.947-1.62-.177 0-.354 0-.531.026-.531-1.164-1.366-2.125-2.378-2.834-1.164-.81-2.556-1.265-4.023-1.265-1.746 0-3.34.633-4.605 1.695-1.113.962-1.923 2.252-2.277 3.77-1.139.127-2.15.633-2.91 1.392C.557 11.368 0 12.582 0 13.948c0 1.341.557 2.581 1.442 3.467.886.86 2.1 1.416 3.466 1.416h13.258c1.544 0 2.935-.632 3.947-1.619 1.012-1.012 1.62-2.404 1.62-3.947 0-1.543-.633-2.935-1.62-3.947zm-1.012 6.933c-.784.784-1.847 1.24-3.01 1.24H4.907c-.986 0-1.897-.405-2.53-1.063-.658-.658-1.062-1.544-1.062-2.53 0-.962.404-1.847 1.037-2.505.658-.658 1.543-1.063 2.53-1.063.101 0 .203-.025.278-.076h.026c.152-.101.253-.253.278-.455.202-1.417.936-2.632 1.948-3.492 1.012-.86 2.328-1.391 3.745-1.391 1.214 0 2.353.38 3.289 1.037.76.531 1.392 1.214 1.822 2.05-.152.05-.304.126-.456.177-.708.328-1.34.784-1.872 1.391-.228.278-.202.683.05.911.279.228.684.202.911-.05.405-.456.886-.81 1.443-1.063.531-.253 1.138-.38 1.745-.38 1.19 0 2.252.48 3.011 1.24.785.784 1.24 1.847 1.24 3.01 0 1.19-.48 2.253-1.24 3.012z"/>
    </g>
</svg>
