<svg xmlns="http://www.w3.org/2000/svg" width="24" height="24" viewBox="0 0 24 24">
    <g fill="#FEC602">
        <path d="M16.075 7.66c-1.067-1.067-2.574-1.757-4.207-1.757s-3.14.659-4.207 1.758c-1.068 1.067-1.758 2.574-1.758 4.207s.69 3.14 1.758 4.207c1.067 1.068 2.574 1.758 4.207 1.758s3.14-.659 4.207-1.758c1.068-1.067 1.758-2.574 1.758-4.207s-.659-3.14-1.758-4.207zm-1.13 7.285c-.785.785-1.884 1.256-3.077 1.256s-2.292-.471-3.077-1.256c-.785-.785-1.256-1.884-1.256-3.077s.471-2.292 1.256-3.077c.785-.785 1.884-1.256 3.077-1.256s2.292.471 3.077 1.256c.785.785 1.256 1.884 1.256 3.077s-.471 2.292-1.256 3.077zM22.92 11.052h-2.418c-.44 0-.816.377-.816.816 0 .44.377.816.816.816h2.418c.44 0 .816-.376.816-.816 0-.44-.377-.816-.816-.816zM11.868 19.686c-.44 0-.816.377-.816.816v2.418c0 .44.377.816.816.816.44 0 .816-.377.816-.816v-2.418c0-.44-.376-.816-.816-.816zM20.251 19.12l-1.727-1.726c-.282-.314-.816-.314-1.13 0-.314.314-.314.816 0 1.13l1.727 1.727c.314.314.816.314 1.13 0 .314-.314.314-.816 0-1.13zM11.868 0c-.44 0-.816.377-.816.816v2.418c0 .44.377.816.816.816.44 0 .816-.377.816-.816V.816c0-.44-.376-.816-.816-.816zM20.282 3.485c-.314-.314-.816-.314-1.13 0l-1.727 1.727c-.314.314-.314.816 0 1.13.283.314.817.314 1.13 0l1.727-1.727c.314-.314.314-.816 0-1.13zM3.234 11.052H.816c-.44 0-.816.377-.816.816 0 .44.345.816.816.816h2.418c.44 0 .816-.376.816-.816 0-.44-.377-.816-.816-.816zM6.31 17.394c-.282-.314-.816-.314-1.13 0L3.455 19.12c-.314.314-.314.816 0 1.13.314.314.816.314 1.13 0l1.727-1.727c.314-.314.314-.816 0-1.13zM6.31 5.212L4.585 3.485c-.314-.314-.816-.314-1.13 0-.314.314-.314.816 0 1.13L5.18 6.342c.313.314.816.314 1.13 0 .314-.314.314-.816 0-1.13z"/>
    </g>
</svg>
