<?xml version="1.0" encoding="utf-8"?>
<!-- Generator: Adobe Illustrator 23.0.4, SVG Export Plug-In . SVG Version: 6.00 Build 0)  -->
<svg version="1.1" id="圖層_1" xmlns="http://www.w3.org/2000/svg" xmlns:xlink="http://www.w3.org/1999/xlink" x="0px" y="0px"
	 viewBox="0 0 20 20" style="enable-background:new 0 0 20 20;" xml:space="preserve">
<style type="text/css">
	.st0{fill:#FFFFFF;}
</style>
<g>
	<g>
		<path class="st0" d="M14.3,0c0.3,0,0.6,0.2,0.6,0.5v3c0,0.3-0.2,0.5-0.6,0.5c-0.3,0-0.6-0.2-0.6-0.5v-3C13.8,0.2,14,0,14.3,0z
			 M10.8,0c0.3,0,0.6,0.2,0.6,0.5v3c0,0.3-0.2,0.5-0.6,0.5c-0.3,0-0.6-0.2-0.6-0.5v-3C10.2,0.2,10.5,0,10.8,0z M7.4,0L7.4,0
			C7.8,0,8,0.2,8,0.5v3c0,0.3-0.2,0.5-0.6,0.5c-0.3,0-0.6-0.2-0.6-0.5V0.5C6.9,0.2,7.1,0,7.4,0z M5.2,7.8c1.5-1.3,3.5-2.2,5.7-2.2
			c2.2,0,4.3,0.8,5.7,2.2c1.5,1.4,2.4,3.2,2.4,5.3v0c0,0.3-0.3,0.5-0.6,0.5c-0.3,0-0.6-0.2-0.6-0.5c0-0.3-0.2-0.6-0.4-0.9
			c-0.2-0.2-0.6-0.4-0.9-0.4c-0.4,0-0.7,0.1-0.9,0.4c-0.2,0.2-0.4,0.5-0.4,0.9c0,0.3-0.3,0.5-0.6,0.5c-0.3,0-0.6-0.2-0.6-0.5
			c0-0.3-0.2-0.6-0.4-0.9c-0.2-0.2-0.6-0.4-0.9-0.4c-0.4,0-0.7,0.1-0.9,0.4c-0.2,0.2-0.4,0.5-0.4,0.9v5.1c0,0.4-0.2,0.8-0.5,1.1
			c-0.3,0.3-0.7,0.5-1.2,0.5c-0.4,0-0.9-0.2-1.2-0.5c-0.3-0.3-0.5-0.7-0.5-1.1c0-0.3,0.3-0.5,0.6-0.5s0.6,0.2,0.6,0.5
			c0,0.1,0,0.2,0.1,0.3c0.1,0.1,0.2,0.1,0.3,0.1s0.3,0,0.3-0.1c0.1-0.1,0.1-0.2,0.1-0.3v-5.1c0-0.3-0.2-0.6-0.4-0.9
			C9.6,12.1,9.3,12,8.9,12c-0.4,0-0.7,0.1-0.9,0.4c-0.2,0.2-0.4,0.5-0.4,0.9c0,0.3-0.3,0.5-0.6,0.5s-0.6-0.2-0.6-0.5
			c0-0.3-0.2-0.6-0.4-0.9C5.8,12.1,5.5,12,5.1,12c-0.3,0-0.6,0.1-0.9,0.3C4,12.5,3.9,12.7,3.9,13c0,0.3-0.3,0.5-0.6,0.5
			c-0.3,0-0.6-0.2-0.6-0.5C2.8,10.9,3.7,9.1,5.2,7.8L5.2,7.8z M5.2,10.9c0.7,0,1.3,0.2,1.7,0.7l0.2,0.1c0-0.1,0.1-0.1,0.2-0.1
			c0.4-0.4,1.1-0.7,1.7-0.7s1.3,0.2,1.7,0.7l0.2,0.1c0-0.1,0.1-0.1,0.2-0.1c0.4-0.4,1.1-0.7,1.7-0.7c0.7,0,1.3,0.2,1.7,0.7l0.2,0.1
			c0-0.1,0.1-0.1,0.2-0.1c0.4-0.4,1.1-0.7,1.7-0.7c0.3,0,0.6,0.1,0.9,0.2c-0.4-0.9-0.9-1.8-1.7-2.5c-1.3-1.2-3-1.9-4.9-1.9
			C9,6.7,7.3,7.4,6.1,8.5C5.3,9.2,4.7,10.1,4.3,11C4.6,10.9,4.9,10.9,5.2,10.9z"/>
	</g>
</g>
</svg>
