<svg xmlns="http://www.w3.org/2000/svg" width="24" height="24" viewBox="0 0 24 24">
    <g fill="none" fill-rule="evenodd">
        <path d="M0 0H24V24H0z"/>
        <g fill="#566D77" fill-rule="nonzero">
            <path d="M5.59 0c-.374 0-.693.264-.693.624v3.648c0 .337.293.625.692.625.373 0 .693-.264.693-.625V.624C6.282.288 5.962 0 5.59 0zM9.838 0c-.373 0-.693.264-.693.624v3.648c0 .337.293.625.693.625.373 0 .693-.264.693-.625V.624c0-.336-.32-.624-.693-.624zM13.899 0h-.027c-.373 0-.693.264-.693.624v3.648c0 .337.293.625.693.625.373 0 .693-.264.693-.625V.6c-.027-.312-.32-.576-.666-.6zM16.602 9.325c-1.84-1.59-4.21-2.585-6.849-2.585-2.691 0-5.116 1.02-6.875 2.66C1.119 11.04.053 13.277.027 15.762v.025c0 .348.32.646.692.646.374 0 .693-.298.693-.646 0-.398.187-.77.453-1.044.293-.273.667-.423 1.12-.423.426 0 .826.174 1.119.423.293.273.453.621.453 1.044 0 .348.32.646.693.646.373 0 .692-.298.692-.646 0-.398.187-.77.453-1.044.294-.273.667-.423 1.12-.423.426 0 .826.174 1.119.423.293.273.453.621.453 1.044v6.064c0 .497.213.97.586 1.292.347.323.853.547 1.386.547.533 0 1.04-.199 1.386-.547.346-.323.586-.795.586-1.292 0-.348-.32-.646-.693-.646-.373 0-.693.298-.693.646 0 .149-.053.298-.16.397-.106.1-.24.15-.4.15-.16 0-.32-.05-.4-.15-.106-.099-.16-.223-.16-.372v-6.064c0-.398.187-.77.454-1.044.293-.274.666-.423 1.12-.423.425 0 .825.174 1.118.423.293.273.453.621.453 1.044 0 .348.32.646.693.646.373 0 .693-.298.693-.646 0-.398.187-.77.453-1.044.293-.274.666-.423 1.12-.423.399 0 .772.15 1.039.373.293.224.48.547.506.92.053.323.346.571.693.571.373 0 .666-.298.666-.646-.08-2.436-1.2-4.647-2.931-6.238zm-.054 3.728c-.8 0-1.545.298-2.078.795l-.187.174c-.053-.074-.106-.124-.186-.174-.533-.497-1.28-.795-2.079-.795-.8 0-1.545.298-2.078.795l-.187.174c-.053-.074-.106-.124-.186-.174-.533-.497-1.28-.795-2.079-.795-.8 0-1.546.298-2.078.795l-.187.174c-.053-.074-.107-.124-.187-.174-.533-.497-1.279-.795-2.078-.795-.4 0-.773.074-1.12.199.427-1.119 1.093-2.138 2-2.958 1.518-1.416 3.597-2.286 5.888-2.286 2.266 0 4.317.845 5.81 2.187.932.845 1.652 1.889 2.078 3.032-.32-.1-.693-.174-1.066-.174z" transform="matrix(-1 0 0 1 22.8 0)"/>
        </g>
    </g>
</svg>
