<svg xmlns="http://www.w3.org/2000/svg" width="20" height="20" viewBox="0 0 20 20">
    <g fill="none" fill-rule="evenodd">
        <path d="M0 0H20V20H0z"/>
        <g fill="#393939" fill-rule="nonzero">
            <path d="M4.658 0c-.311 0-.578.22-.578.52v3.04c0 .28.245.52.578.52.31 0 .577-.22.577-.52V.52c0-.28-.266-.52-.577-.52zM8.198 0c-.31 0-.577.22-.577.52v3.04c0 .28.244.52.577.52.311 0 .578-.22.578-.52V.52c0-.28-.267-.52-.578-.52zM11.582 0h-.022c-.311 0-.577.22-.577.52v3.04c0 .28.244.52.577.52.31 0 .577-.22.577-.52V.5c-.022-.26-.266-.48-.555-.5zM13.835 7.77c-1.533-1.325-3.509-2.153-5.707-2.153-2.243 0-4.264.849-5.73 2.216C.933 9.2.044 11.063.022 13.135v.02c0 .29.267.54.578.54.31 0 .577-.25.577-.54 0-.33.155-.641.377-.87.245-.227.556-.351.933-.351.355 0 .689.145.933.352.244.228.377.518.377.87 0 .29.267.538.578.538.31 0 .577-.248.577-.538 0-.332.156-.642.378-.87.244-.228.555-.352.932-.352.356 0 .689.145.933.352.244.228.377.518.377.87v5.053c0 .414.178.808.489 1.077.289.27.71.456 1.155.456.444 0 .866-.166 1.154-.456.29-.27.489-.663.489-1.077 0-.29-.266-.538-.577-.538-.311 0-.578.248-.578.538 0 .124-.044.249-.133.331-.089.083-.2.125-.333.125s-.267-.042-.333-.125c-.089-.082-.133-.186-.133-.31V13.176c0-.331.155-.642.377-.87.244-.227.555-.352.933-.352.355 0 .688.145.932.352.245.228.378.518.378.87 0 .29.266.539.577.539.311 0 .578-.249.578-.539 0-.331.155-.642.377-.87.244-.227.555-.352.933-.352.333 0 .644.125.866.311.244.186.4.456.422.766.044.27.289.477.577.477.311 0 .555-.249.555-.539-.066-2.03-.999-3.873-2.442-5.198zm-.045 3.107c-.666 0-1.288.249-1.732.663l-.155.145c-.045-.062-.09-.103-.156-.145-.444-.414-1.066-.663-1.732-.663-.666 0-1.288.249-1.732.663l-.155.145c-.045-.062-.09-.103-.156-.145-.444-.414-1.066-.663-1.732-.663-.666 0-1.288.249-1.732.663l-.156.145c-.044-.062-.088-.103-.155-.145-.444-.414-1.066-.663-1.732-.663-.333 0-.644.063-.933.166.356-.932.91-1.781 1.666-2.464 1.266-1.181 2.998-1.906 4.907-1.906 1.888 0 3.598.704 4.841 1.823.778.704 1.377 1.574 1.733 2.526-.267-.082-.578-.145-.889-.145z" transform="matrix(-1 0 0 1 19 0)"/>
        </g>
    </g>
</svg>
