<svg xmlns="http://www.w3.org/2000/svg" width="32" height="32" viewBox="0 0 32 32">
    <g fill="none" fill-rule="evenodd" stroke="#24A09A" stroke-linecap="round" stroke-linejoin="round" stroke-width="1.5">
        <path d="M29.02 20.67a6.19 6.19 0 0 0 .336-2.023c0-3.36-2.667-6.086-5.958-6.086h-.646c0-.024.003-.046.003-.07 0-3.888-3.085-7.04-6.891-7.04-3.807 0-6.892 3.152-6.892 7.04 0 .024.003.046.003.07H7.36c-3.29 0-5.958 2.725-5.958 6.086 0 3.362 2.667 6.087 5.958 6.087h6.888"/>
        <path d="M26.78 19.836h-.376l.002-.04c0-2.262-1.795-4.096-4.01-4.096-2.214 0-4.01 1.834-4.01 4.096 0 .014.003.027.003.04h-.94c-1.915 0-3.467 1.586-3.467 3.541 0 1.957 1.552 3.542 3.467 3.542h9.331c1.915 0 3.467-1.585 3.467-3.542 0-1.955-1.552-3.54-3.467-3.54z"/>
    </g>
</svg>
