<svg xmlns="http://www.w3.org/2000/svg" width="14" height="18" viewBox="0 0 14 18">
    <g fill="#24A09A">
        <path d="M13.178.951C12.784.497 12.097.447 11.642.84c-.04.034-.076.071-.11.11L7 6.18 2.469.95C2.075.497 1.388.448.933.84.893.876.857.913.823.952c-.473.547-.473 1.357 0 1.903l5.42 6.27c.362.419.993.465 1.411.103.037-.031.07-.065.102-.102l5.421-6.27c.473-.547.473-1.357 0-1.904z"/>
        <path d="M13.177 8.951c-.393-.454-1.08-.504-1.535-.111-.04.034-.076.071-.11.11L7 14.18 2.469 8.95c-.394-.454-1.081-.503-1.536-.11-.04.035-.076.072-.11.111-.473.547-.473 1.357 0 1.903l5.42 6.27c.362.419.993.465 1.411.103.037-.031.07-.065.102-.102l5.421-6.27c.473-.547.473-1.357 0-1.904z"/>
    </g>
</svg>
