<?xml version="1.0" encoding="utf-8"?>
<!-- Generator: Adobe Illustrator 23.0.4, SVG Export Plug-In . SVG Version: 6.00 Build 0)  -->
<svg version="1.1" id="圖層_1" xmlns="http://www.w3.org/2000/svg" xmlns:xlink="http://www.w3.org/1999/xlink" x="0px" y="0px"
	 viewBox="0 0 20 20" style="enable-background:new 0 0 20 20;" xml:space="preserve">
<style type="text/css">
	.st0{fill:#FFFFFF;}
</style>
<g>
	<path class="st0" d="M18.4,7.8c-0.8-0.8-2-1.3-3.3-1.3c-0.1,0-0.3,0-0.4,0c-0.4-1-1.1-1.8-2-2.4C11.7,3.4,10.6,3,9.4,3
		C7.9,3,6.6,3.5,5.5,4.4C4.6,5.2,3.9,6.3,3.6,7.6c-1,0.1-1.8,0.5-2.4,1.2C0.5,9.5,0,10.5,0,11.6c0,1.1,0.5,2.2,1.2,2.9
		c0.7,0.7,1.8,1.2,2.9,1.2h11.1c1.3,0,2.4-0.5,3.3-1.3c0.8-0.8,1.4-2,1.4-3.3S19.3,8.6,18.4,7.8L18.4,7.8z M17.6,13.5
		c-0.7,0.7-1.5,1-2.5,1h-11c-0.8,0-1.6-0.3-2.1-0.9c-0.5-0.5-0.9-1.3-0.9-2.1c0-0.8,0.3-1.5,0.9-2.1c0.5-0.5,1.3-0.9,2.1-0.9
		c0.1,0,0.2,0,0.2-0.1h0c0.1-0.1,0.2-0.2,0.2-0.4C4.7,7,5.3,6,6.2,5.3C7,4.5,8.1,4.1,9.3,4.1c1,0,2,0.3,2.7,0.9
		c0.6,0.4,1.2,1,1.5,1.7c-0.1,0-0.3,0.1-0.4,0.1c-0.6,0.3-1.1,0.7-1.6,1.2c-0.2,0.2-0.2,0.6,0,0.8c0.2,0.2,0.6,0.2,0.8,0
		c0.3-0.4,0.7-0.7,1.2-0.9c0.4-0.2,0.9-0.3,1.5-0.3c1,0,1.9,0.4,2.5,1c0.7,0.7,1,1.5,1,2.5C18.6,12,18.2,12.9,17.6,13.5z"/>
</g>
</svg>
