<svg xmlns="http://www.w3.org/2000/svg" width="20" height="20" viewBox="0 0 20 20">
    <g fill="none" fill-rule="evenodd">
        <path d="M0 0H20V20H0z"/>
        <path fill="#393939" fill-rule="nonzero" d="M18.428 7.765c-.844-.843-2.003-1.35-3.29-1.35-.147 0-.295 0-.442.022-.443-.97-1.139-1.771-1.982-2.362-.97-.674-2.13-1.054-3.353-1.054-1.454 0-2.783.527-3.837 1.413-.928.8-1.602 1.876-1.897 3.141-.95.106-1.793.527-2.425 1.16C.464 9.473 0 10.485 0 11.624c0 1.117.464 2.15 1.202 2.888.738.717 1.75 1.18 2.888 1.18H15.14c1.286 0 2.445-.526 3.289-1.349.843-.843 1.35-2.003 1.35-3.289s-.528-2.446-1.35-3.289zm-.844 5.777c-.653.654-1.539 1.033-2.509 1.033H4.09c-.822 0-1.581-.337-2.108-.885-.548-.548-.886-1.286-.886-2.109 0-.8.338-1.539.865-2.087.548-.548 1.286-.886 2.108-.886.085 0 .169-.02.232-.063h.021c.127-.084.211-.21.232-.38.169-1.18.78-2.192 1.624-2.909.843-.717 1.94-1.16 3.12-1.16 1.012 0 1.961.317 2.741.865.633.443 1.16 1.012 1.518 1.708-.126.042-.253.105-.38.147-.59.274-1.117.654-1.56 1.16-.19.232-.168.57.043.759.232.19.569.169.759-.042.337-.38.738-.675 1.202-.886.442-.21.948-.316 1.454-.316.991 0 1.877.4 2.51 1.033.653.654 1.033 1.54 1.033 2.51 0 .99-.401 1.876-1.034 2.508z"/>
    </g>
</svg>
