<?xml version="1.0" encoding="utf-8"?>
<!-- Generator: Adobe Illustrator 23.0.4, SVG Export Plug-In . SVG Version: 6.00 Build 0)  -->
<svg version="1.1" id="圖層_1" xmlns="http://www.w3.org/2000/svg" xmlns:xlink="http://www.w3.org/1999/xlink" x="0px" y="0px"
	 viewBox="0 0 20 20" style="enable-background:new 0 0 20 20;" xml:space="preserve">
<style type="text/css">
	.st0{fill:#FFFFFF;}
</style>
<g>
	<path class="st0" d="M13.4,6.4c-0.9-0.9-2.1-1.5-3.5-1.5c-1.4,0-2.6,0.6-3.5,1.5C5.5,7.3,4.9,8.5,4.9,9.9s0.6,2.6,1.5,3.5
		s2.1,1.5,3.5,1.5s2.6-0.6,3.5-1.5c0.9-0.9,1.5-2.1,1.5-3.5C14.9,8.5,14.3,7.3,13.4,6.4z M12.5,12.5c-0.7,0.7-1.6,1-2.6,1
		s-1.9-0.4-2.6-1s-1-1.6-1-2.6s0.4-1.9,1-2.6s1.6-1,2.6-1s1.9,0.4,2.6,1s1,1.6,1,2.6S13.1,11.8,12.5,12.5z M19.1,9.2h-2
		c-0.4,0-0.7,0.3-0.7,0.7s0.3,0.7,0.7,0.7h2c0.4,0,0.7-0.3,0.7-0.7S19.5,9.2,19.1,9.2z M9.9,16.4c-0.4,0-0.7,0.3-0.7,0.7v2
		c0,0.4,0.3,0.7,0.7,0.7s0.7-0.3,0.7-0.7v-2C10.6,16.7,10.3,16.4,9.9,16.4z M16.9,15.9l-1.4-1.4c-0.2-0.3-0.7-0.3-0.9,0
		c-0.3,0.3-0.3,0.7,0,0.9l1.4,1.4c0.3,0.3,0.7,0.3,0.9,0C17.1,16.6,17.1,16.2,16.9,15.9z M9.9,0C9.5,0,9.2,0.3,9.2,0.7v2
		c0,0.4,0.3,0.7,0.7,0.7s0.7-0.3,0.7-0.7v-2C10.6,0.3,10.3,0,9.9,0z M16.9,2.9c-0.3-0.3-0.7-0.3-0.9,0l-1.4,1.4
		c-0.3,0.3-0.3,0.7,0,0.9c0.2,0.3,0.7,0.3,0.9,0l1.4-1.4C17.2,3.6,17.2,3.2,16.9,2.9L16.9,2.9z M2.7,9.2h-2C0.3,9.2,0,9.5,0,9.9
		s0.3,0.7,0.7,0.7h2c0.4,0,0.7-0.3,0.7-0.7S3.1,9.2,2.7,9.2z M5.3,14.5c-0.2-0.3-0.7-0.3-0.9,0l-1.4,1.4c-0.3,0.3-0.3,0.7,0,0.9
		s0.7,0.3,0.9,0l1.4-1.4C5.5,15.2,5.5,14.8,5.3,14.5z M5.3,4.3L3.8,2.9c-0.3-0.3-0.7-0.3-0.9,0c-0.3,0.3-0.3,0.7,0,0.9l1.4,1.4
		c0.3,0.3,0.7,0.3,0.9,0C5.5,5,5.5,4.6,5.3,4.3z"/>
</g>
</svg>
