<svg xmlns="http://www.w3.org/2000/svg" width="20" height="20" viewBox="0 0 20 20">
    <g fill="#393939">
        <path d="M13.396 6.384c-.89-.89-2.145-1.465-3.506-1.465-1.36 0-2.616.55-3.506 1.465-.89.89-1.465 2.146-1.465 3.506 0 1.36.575 2.616 1.465 3.506.89.89 2.146 1.465 3.506 1.465 1.36 0 2.616-.55 3.506-1.465.89-.89 1.465-2.145 1.465-3.506 0-1.36-.55-2.616-1.465-3.506zm-.942 6.07c-.654.654-1.57 1.047-2.564 1.047s-1.91-.393-2.564-1.047c-.654-.654-1.047-1.57-1.047-2.564s.393-1.91 1.047-2.564c.654-.654 1.57-1.047 2.564-1.047s1.91.393 2.564 1.047c.654.654 1.047 1.57 1.047 2.564s-.393 1.91-1.047 2.564zM19.1 9.21h-2.015c-.366 0-.68.314-.68.68 0 .366.314.68.68.68H19.1c.366 0 .68-.314.68-.68 0-.366-.314-.68-.68-.68zM9.89 16.405c-.366 0-.68.314-.68.68V19.1c0 .366.314.68.68.68.366 0 .68-.314.68-.68v-2.015c0-.366-.314-.68-.68-.68zM16.876 15.934l-1.44-1.44c-.235-.26-.68-.26-.941 0-.262.263-.262.681 0 .943l1.439 1.439c.262.262.68.262.942 0 .262-.262.262-.68 0-.942zM9.89 0c-.366 0-.68.314-.68.68v2.015c0 .366.314.68.68.68.366 0 .68-.314.68-.68V.68c0-.366-.314-.68-.68-.68zM16.902 2.904c-.262-.261-.68-.261-.942 0l-1.439 1.44c-.262.26-.262.68 0 .941.236.262.68.262.942 0l1.44-1.439c.26-.262.26-.68 0-.942zM2.695 9.21H.68c-.366 0-.68.314-.68.68 0 .366.288.68.68.68h2.015c.366 0 .68-.314.68-.68 0-.366-.314-.68-.68-.68zM5.259 14.495c-.235-.262-.68-.262-.942 0l-1.439 1.439c-.262.262-.262.68 0 .942.262.262.68.262.942 0l1.439-1.44c.262-.26.262-.68 0-.941zM5.259 4.343L3.82 2.904c-.262-.261-.68-.261-.942 0-.262.262-.262.68 0 .942l1.44 1.44c.26.26.68.26.941 0 .262-.262.262-.681 0-.943z"/>
    </g>
</svg>
