<svg xmlns="http://www.w3.org/2000/svg" xmlns:xlink="http://www.w3.org/1999/xlink" width="110" height="120" viewBox="0 0 110 120">
    <defs>
        <path id="nsbvnaiy8a" d="M0.319 0.653L3.384 0.653 3.384 3.715 0.319 3.715z"/>
        <path id="geg7598t1c" d="M0.047 0.653L3.112 0.653 3.112 3.715 0.047 3.715z"/>
    </defs>
    <g fill="none" fill-rule="evenodd">
        <g>
            <g>
                <path fill="#989899" fill-rule="nonzero" d="M6.685 60.538S.935 63.324.415 75.164c-.587 13.224 11.323 23.508 24.041 26.989L6.685 60.538zm96.84 0s5.75 2.786 6.273 14.626c.584 13.224-11.324 23.508-24.044 26.989l17.772-41.615z" transform="translate(-1018 -469) translate(1018 469)"/>
                <path fill="#EC8822" fill-rule="nonzero" d="M45.292 119.494c-.476 0-.945-.213-1.257-.62l-2.704-3.539-3.007 3.593c-.569.633-1.536.703-2.19.157-.652-.545-.756-1.51-.234-2.181l4.275-5.11c.308-.368.767-.576 1.247-.566.48.01.929.239 1.22.62l3.904 5.11c.366.477.429 1.12.162 1.659-.266.538-.815.88-1.416.878m28.37 0c-.477 0-.947-.214-1.258-.62l-2.705-3.54-3.006 3.593c-.566.643-1.541.718-2.198.169-.658-.55-.758-1.522-.227-2.193l4.276-5.11c.308-.368.767-.576 1.247-.566.48.01.929.239 1.22.62l3.904 5.11c.366.477.429 1.12.163 1.659-.267.538-.816.88-1.417.878" transform="translate(-1018 -469) translate(1018 469)"/>
                <path fill="#E7E4E2" fill-rule="nonzero" d="M54.944 7.314C28.19 7.314 6.502 28.673 6.502 55.02c0 27.648 12.238 47.687 29.666 55.953 3.688 1.75 7.97 1.453 11.56-.49 2.215-1.2 4.696-1.826 7.216-1.823 2.615 0 5.07.662 7.216 1.824 3.59 1.942 7.87 2.24 11.56.49 17.427-8.267 29.666-28.306 29.666-55.953 0-26.348-21.688-47.707-48.442-47.707" transform="translate(-1018 -469) translate(1018 469)"/>
                <path fill="#FFF" fill-rule="nonzero" d="M76.174 18.812c-4.564-.322-9.13.602-13.21 2.674-5.044 2.573-11.016 2.573-16.06 0-4.08-2.072-8.645-2.996-13.21-2.674-12.48.844-22.598 10.94-23.458 23.412C9.218 56.986 20.9 69.278 35.454 69.278c4.186 0 8.133-1.018 11.61-2.817 4.936-2.552 10.802-2.552 15.738 0 3.588 1.856 7.57 2.822 11.61 2.817 14.554 0 26.235-12.292 25.217-27.054-.86-12.471-10.978-22.568-23.456-23.412" transform="translate(-1018 -469) translate(1018 469)"/>
                <path fill="#989899" fill-rule="nonzero" d="M24.315 80.952c-2.106-.77-3.707-2.516-4.294-4.68-.925 2.894.567 6.02 3.425 7.06 2.859 1.043 6.014-.387 7.173-3.2-1.844 1.28-4.194 1.586-6.304.82m12.094 15.02c-2.106-.769-3.709-2.513-4.296-4.678-.924 2.894.57 6.02 3.427 7.062 2.859 1.04 6.013-.39 7.172-3.2-1.792 1.23-4.118 1.615-6.303.817m20.497 3.087c-2.241-.093-4.297-1.268-5.515-3.152 0 3.04 2.373 5.564 5.413 5.686 3.04.122 5.609-2.2 5.856-5.23-1.367 1.78-3.512 2.784-5.753 2.696m18.408-3.712c2.107-.77 3.708-2.515 4.296-4.68.924 2.894-.567 6.02-3.426 7.061-2.86 1.043-6.014-.389-7.172-3.198 1.792 1.229 4.118 1.614 6.302.817M42.993 84.913c-2.2-.439-4.05-1.917-4.962-3.966-.471 3 1.484 5.86 4.469 6.453 2.982.592 5.882-1.306 6.596-4.259-1.626 1.546-3.902 2.207-6.103 1.772m42.315-3.961c2.107-.77 3.708-2.515 4.296-4.68.924 2.894-.569 6.02-3.426 7.06-2.86 1.043-6.014-.387-7.172-3.2 1.792 1.233 4.118 1.616 6.302.82m-18.677 3.96c2.2-.438 4.05-1.916 4.962-3.965.47 3-1.485 5.86-4.468 6.453-2.985.592-5.883-1.306-6.597-4.259 1.626 1.546 3.901 2.206 6.103 1.772M56.27 13.318s3.674-4.312 8.988-5.673c4.5-1.153 2.723-4.357-1.406-2.037-3.382 1.898-7.582 7.71-7.582 7.71m-2.73-1.18S52.725 7.1 49.318 4.24c-2.436-2.045-.973-4.074.274-4.221 2.315-.272 4.223 3.132 3.95 12.118m-2.316-.682S44.058 3.021 39.51 5.194c-3.135 1.498 6.674 2.995 11.715 6.262" transform="translate(-1018 -469) translate(1018 469)"/>
                <path fill="#231F20" fill-rule="nonzero" d="M84.054 42.885c0 1.956-.778 3.832-2.162 5.215s-3.26 2.16-5.217 2.159c-1.956 0-3.833-.776-5.216-2.159-1.384-1.383-2.162-3.259-2.163-5.215.001-1.957.779-3.833 2.163-5.216 1.383-1.382 3.26-2.159 5.216-2.158 1.957-.001 3.833.776 5.217 2.158 1.384 1.383 2.161 3.26 2.162 5.216" transform="translate(-1018 -469) translate(1018 469)"/>
                <path fill="#FFF" fill-rule="nonzero" d="M78.026 42.339c0 1.45-1.175 2.625-2.625 2.625s-2.625-1.176-2.625-2.625c0-1.45 1.176-2.625 2.625-2.625 1.45 0 2.625 1.175 2.625 2.625" transform="translate(-1018 -469) translate(1018 469)"/>
                <g>
                    <g transform="translate(-1018 -469) translate(1018 469) translate(77.808 42.919)">
                        <mask id="jfqhaoy84b" fill="#fff">
                            <use xlink:href="#nsbvnaiy8a"/>
                        </mask>
                        <path fill="#FFF" fill-rule="nonzero" d="M3.384 2.184c0 .845-.687 1.531-1.533 1.53-.846 0-1.531-.686-1.531-1.532S1.006.651 1.852.652c.846 0 1.532.686 1.532 1.532" mask="url(#jfqhaoy84b)"/>
                    </g>
                </g>
                <g fill-rule="nonzero">
                    <path fill="#231F20" d="M15.628 7.59c0 1.957-.778 3.833-2.162 5.216s-3.26 2.16-5.217 2.159c-1.956 0-3.832-.776-5.216-2.16C1.649 11.424.87 9.548.87 7.592c0-1.957.778-3.833 2.162-5.216S6.293.215 8.249.216c1.957 0 3.833.776 5.217 2.16 1.384 1.382 2.162 3.258 2.162 5.215" transform="translate(-1018 -469) translate(1018 469) translate(24.706 35.294)"/>
                    <path fill="#FFF" d="M9.599 7.045c0 1.061-.639 2.019-1.62 2.425-.98.407-2.11.183-2.86-.568-.751-.75-.976-1.88-.57-2.86.406-.981 1.363-1.62 2.425-1.62.696-.001 1.364.275 1.856.767s.769 1.16.769 1.856" transform="translate(-1018 -469) translate(1018 469) translate(24.706 35.294)"/>
                </g>
                <g>
                    <g transform="translate(-1018 -469) translate(1018 469) translate(34.36 42.919)">
                        <mask id="5jpyb359id" fill="#fff">
                            <use xlink:href="#geg7598t1c"/>
                        </mask>
                        <path fill="#FFF" fill-rule="nonzero" d="M3.112 2.184c0 .846-.687 1.532-1.533 1.531-.846 0-1.532-.686-1.532-1.533 0-.547.292-1.052.766-1.326.474-.273 1.058-.273 1.532 0 .474.274.766.78.766 1.328" mask="url(#5jpyb359id)"/>
                    </g>
                </g>
                <g fill-rule="nonzero">
                    <path fill="#EC8822" d="M28.57 13.15l4.235 8.286 3.676-8.285s-3.856-2.28-7.91 0" transform="translate(-1018 -469) translate(1018 469) translate(22.353 32.941)"/>
                    <path fill="#FFF" d="M47.6 2.627s6.374 4.899 15.87 6.112c0 0-1.526-5.399-6.035-7.368C52.925-.6 47.6 2.627 47.6 2.627m-31.106 0S10.12 7.526.622 8.74c0 0 1.53-5.399 6.037-7.368 4.51-1.97 9.835 1.256 9.835 1.256" transform="translate(-1018 -469) translate(1018 469) translate(22.353 32.941)"/>
                    <path fill="#ABE3FF" d="M56.645 12.075s2.216 2.187 3.482 5.8c1.645 4.692 7.384 1.945 5.33-2.1-2.08-4.094-8.811-3.7-8.811-3.7" transform="translate(-1018 -469) translate(1018 469) translate(22.353 32.941)"/>
                    <path fill="#CFF1FF" d="M58.839 12.162c1.823.522 5.3 1.923 6.082 5.152.383 1.578-.114 2.399-.84 2.824 1.435-.566 2.427-2.293 1.377-4.362-1.309-2.578-4.463-3.376-6.62-3.614" transform="translate(-1018 -469) translate(1018 469) translate(22.353 32.941)"/>
                </g>
            </g>
        </g>
    </g>
</svg>
