<svg xmlns="http://www.w3.org/2000/svg" width="16" height="16" viewBox="0 0 16 16">
    <g fill="#809199">
        <path d="M8.791 10.829c-.248-.231-.651-.196-.87.067l-2.3 2.748V2.66C5.621 2.298 5.341 2 5 2c-.341 0-.622.298-.622.659v10.985l-2.3-2.748c-.249-.263-.622-.298-.87-.067-.248.263-.28.659-.063.922l3.388 4.018c.254.333.703.282.903 0l3.418-4.018c.218-.26.188-.69-.063-.922zM15.855 4.27L12.496.247c-.299-.32-.672-.339-.932 0L8.145 4.27c-.218.264-.185.692.063.923.383.323.768.101.87-.067l2.3-2.751V13.34c0 .361.281.659.622.659.34 0 .622-.263.622-.628V2.378l2.3 2.752c.248.263.622.298.87.066.248-.266.28-.662.063-.926z"/>
    </g>
</svg>
